<svg xmlns="http://www.w3.org/2000/svg" width="1200" height="630" viewBox="0 0 1200 630" role="img" aria-labelledby="cardtitle carddesc">
  <title id="cardtitle">The serviceable line</title>
  <desc id="carddesc">Five bars, one per layer: Findable, Selectable, Integrable, Operable and Fixable, each as long as what the offering asks on that layer. A mark on each bar is the serviceable line: how far your customers and their AI get on that layer on their own. Past it, your people step in or revenue is lost. Blue is what customers carry; gold on all five layers is what their AI carries, and the mark sits at its end. How far do your customers, and their AI, get without you? A point of view by Etgar Bonar.</desc>
  <rect width="1200" height="630" fill="#101a1d"/>
  <text x="786" y="116" text-anchor="end" font-family="Noto Sans, Liberation Sans, Arial, Helvetica, sans-serif" font-size="20" fill="#a8bdc1">Findable</text>
  <rect x="800" y="98.0" width="302.4" height="24" rx="6.0" fill="#a8bdc1" fill-opacity=".14" stroke="#a8bdc1" stroke-opacity=".45"/>
  <rect x="800" y="98.0" width="280.0" height="24" rx="6.0" fill="#dcb96f"/>
  <rect x="800" y="98.0" width="212.8" height="24" rx="6.0" fill="#2f72ff"/>
  <line x1="1080.0" y1="92.0" x2="1080.0" y2="128.0" stroke="#f4efe6" stroke-width="3" stroke-linecap="round"/>
  <text x="786" y="176" text-anchor="end" font-family="Noto Sans, Liberation Sans, Arial, Helvetica, sans-serif" font-size="20" fill="#a8bdc1">Selectable</text>
  <rect x="800" y="158.0" width="336.0" height="24" rx="6.0" fill="#a8bdc1" fill-opacity=".14" stroke="#a8bdc1" stroke-opacity=".45"/>
  <rect x="800" y="158.0" width="257.6" height="24" rx="6.0" fill="#dcb96f"/>
  <rect x="800" y="158.0" width="145.6" height="24" rx="6.0" fill="#2f72ff"/>
  <line x1="1057.6" y1="152.0" x2="1057.6" y2="188.0" stroke="#f4efe6" stroke-width="3" stroke-linecap="round"/>
  <text x="786" y="236" text-anchor="end" font-family="Noto Sans, Liberation Sans, Arial, Helvetica, sans-serif" font-size="20" fill="#a8bdc1">Integrable</text>
  <rect x="800" y="218.0" width="224.0" height="24" rx="6.0" fill="#a8bdc1" fill-opacity=".14" stroke="#a8bdc1" stroke-opacity=".45"/>
  <rect x="800" y="218.0" width="212.8" height="24" rx="6.0" fill="#dcb96f"/>
  <rect x="800" y="218.0" width="168.0" height="24" rx="6.0" fill="#2f72ff"/>
  <line x1="1012.8" y1="212.0" x2="1012.8" y2="248.0" stroke="#f4efe6" stroke-width="3" stroke-linecap="round"/>
  <text x="786" y="296" text-anchor="end" font-family="Noto Sans, Liberation Sans, Arial, Helvetica, sans-serif" font-size="20" fill="#a8bdc1">Operable</text>
  <rect x="800" y="278.0" width="268.8" height="24" rx="6.0" fill="#a8bdc1" fill-opacity=".14" stroke="#a8bdc1" stroke-opacity=".45"/>
  <rect x="800" y="278.0" width="140.0" height="24" rx="6.0" fill="#dcb96f"/>
  <rect x="800" y="278.0" width="100.8" height="24" rx="6.0" fill="#2f72ff"/>
  <line x1="940.0" y1="272.0" x2="940.0" y2="308.0" stroke="#f4efe6" stroke-width="3" stroke-linecap="round"/>
  <text x="786" y="356" text-anchor="end" font-family="Noto Sans, Liberation Sans, Arial, Helvetica, sans-serif" font-size="20" fill="#a8bdc1">Fixable</text>
  <rect x="800" y="338.0" width="179.2" height="24" rx="6.0" fill="#a8bdc1" fill-opacity=".14" stroke="#a8bdc1" stroke-opacity=".45"/>
  <rect x="800" y="338.0" width="123.2" height="24" rx="6.0" fill="#dcb96f"/>
  <rect x="800" y="338.0" width="95.2" height="24" rx="6.0" fill="#2f72ff"/>
  <line x1="923.2" y1="332.0" x2="923.2" y2="368.0" stroke="#f4efe6" stroke-width="3" stroke-linecap="round"/>
  <rect x="690" y="438" width="22" height="14" rx="3" fill="none" stroke="#a8bdc1" stroke-opacity=".7" stroke-width="1.5"/>
  <text x="724" y="450" font-family="Noto Sans, Liberation Sans, Arial, Helvetica, sans-serif" font-size="17" fill="#a8bdc1" opacity=".8">The surface: what your offering asks of someone</text>
  <line x1="701" y1="467" x2="701" y2="485" stroke="#f4efe6" stroke-width="3" stroke-linecap="round"/>
  <text x="724" y="482" font-family="Noto Sans, Liberation Sans, Arial, Helvetica, sans-serif" font-size="17" fill="#a8bdc1" opacity=".8">The serviceable line</text>
  <rect x="690" y="502" width="22" height="14" rx="3" fill="#2f72ff"/>
  <text x="724" y="514" font-family="Noto Sans, Liberation Sans, Arial, Helvetica, sans-serif" font-size="17" fill="#a8bdc1" opacity=".8">Carried by your customers</text>
  <rect x="690" y="534" width="22" height="14" rx="3" fill="#dcb96f"/>
  <text x="724" y="546" font-family="Noto Sans, Liberation Sans, Arial, Helvetica, sans-serif" font-size="17" fill="#a8bdc1" opacity=".8">Carried by their AI</text>
  <rect x="690" y="566" width="22" height="14" rx="3" fill="#a8bdc1" fill-opacity=".14" stroke="#a8bdc1" stroke-opacity=".45"/>
  <text x="724" y="578" font-family="Noto Sans, Liberation Sans, Arial, Helvetica, sans-serif" font-size="17" fill="#a8bdc1" opacity=".8">Your people step in, or revenue is lost</text>
  <text x="80" y="196" font-family="Noto Sans, Liberation Sans, Arial, Helvetica, sans-serif" font-size="68" font-weight="700" letter-spacing="-1" fill="#f4efe6">The serviceable</text>
  <text x="80" y="274" font-family="Noto Sans, Liberation Sans, Arial, Helvetica, sans-serif" font-size="68" font-weight="700" letter-spacing="-1" fill="#f4efe6">line</text>
  <text x="80" y="352" font-family="Noto Sans, Liberation Sans, Arial, Helvetica, sans-serif" font-size="30" fill="#a8bdc1">How far do your customers,</text>
  <text x="80" y="394" font-family="Noto Sans, Liberation Sans, Arial, Helvetica, sans-serif" font-size="30" fill="#a8bdc1">and their AI, get without you?</text>
  <text x="80" y="548" font-family="Noto Sans, Liberation Sans, Arial, Helvetica, sans-serif" font-size="21" fill="#dcb96f">A point of view by Etgar Bonar</text>
  <text x="80" y="580" font-family="Noto Sans, Liberation Sans, Arial, Helvetica, sans-serif" font-size="21" fill="#a8bdc1" opacity=".5">etgarbonar.com</text>
</svg>
